<svg xmlns="http://www.w3.org/2000/svg" fill="none" viewBox="0 0 819 1119"><g opacity=".9"><path fill="url(#a)" d="M512.59 923.09H51.65c-28.48 0-51.56-23.08-51.56-51.56V51.72C.09 23.24 23.17.16 51.65.16h185.96c28.48 0 51.56 23.08 51.56 51.56l274.98 819.82c0 28.47-23.09 51.55-51.56 51.55Z"/><path fill="url(#b)" d="M237.52 8.42c23.82 0 43.19 19.38 43.19 43.2v1.37l.43 1.29 274.52 818.63c-.69 23.22-19.79 41.9-43.17 41.9H51.56c-23.82 0-43.19-19.38-43.19-43.2V51.62c0-23.82 19.38-43.2 43.19-43.2h185.96Zm0-8.37H51.56C23.08.05 0 23.14 0 51.62V871.6c0 28.48 23.08 51.57 51.56 51.57h460.93c28.48 0 51.56-23.09 51.56-51.57L289.08 51.62c0-28.48-23.09-51.57-51.56-51.57Z"/></g><path fill="url(#c)" d="M66.59 2.75S396 8.59 409.19 8.59c26.57 0 62.1 0 98.92 15 72.86 29.68 121.84 90.61 119.9 185.92-1.82 89.13-72.87 148.93-148.24 172.8-10.87 3.44-33.78 9.03-34.56 16.26-.48 4.41 21.43 43.76 28.52 54.09 6.16 8.97 253.13 368.02 317.53 462.2l-418.54.02L48.36 441.19s-6.75-8.95-4.56-15.86c3.19-10.04 13.09-12.49 22.84-16.3 13.21-5.16 125.45-49.02 128.25-180.92C198 81.14 78.76 58.95 66.77 55c-20.26-6.67-35.33-28.32-28.18-41.59 7.5-13.9 28-10.66 28-10.66Z"/><path fill="url(#d)" d="M51.56.05C29.27.05 10.33 14.23 3.14 34.04h9C18.89 18.96 34 8.42 51.56 8.42h168.69V.05H51.56Z"/><path fill="url(#e)" d="M468.84 914.66H316.93v8.52h151.91v-8.52Z"/><path fill="url(#f)" d="M93.23.02h338.78c25.65 0 59.95 0 95.5 14.48 70.33 28.65 125.24 98.59 124.55 190.61-.71 95.95-75.9 166.28-148.66 189.32-10.49 3.32-21.83 4.09-22.59 11.07-.46 4.25 6.65 13.22 13.49 23.19S814.6 896.8 814.6 896.8s8.24 11.48.22 20.53c-5.65 6.37-19.79 5.81-19.79 5.81H456.79s-20.92 1.06-30.69-8.72c-6-6-16.67-21.15-16.67-21.15L83.68 417.62s-6.52-8.64-4.4-15.31c3.08-9.69 12.64-12.06 22.05-15.74 12.75-4.98 121.1-47.32 123.8-174.65C228.14 70.05 107.72 26.93 95.66 25.17c-8.32-1.21-16.38-5.9-16.38-13.41C79.28-.96 93.23.02 93.23.02Z"/><path fill="url(#g)" d="M93.23.02h338.78c25.65 0 59.95 0 95.5 14.48 70.33 28.65 125.24 98.59 124.55 190.61-.71 95.95-75.9 166.28-148.66 189.32-10.49 3.32-21.83 4.09-22.59 11.07-.46 4.25 6.65 13.22 13.49 23.19S814.6 896.8 814.6 896.8s8.24 11.48.22 20.53c-5.65 6.37-19.79 5.81-19.79 5.81H456.79s-20.92 1.06-30.69-8.72c-6-6-16.67-21.15-16.67-21.15L83.68 417.62s-6.52-8.64-4.4-15.31c3.08-9.69 12.64-12.06 22.05-15.74 12.75-4.98 121.1-47.32 123.8-174.65C228.14 70.05 107.72 26.93 95.66 25.17c-8.32-1.21-16.38-5.9-16.38-13.41C79.28-.96 93.23.02 93.23.02Z"/><path fill="url(#h)" d="M93.23.02h338.78c25.65 0 59.95 0 95.5 14.48 70.33 28.65 125.24 98.59 124.55 190.61-.71 95.95-75.9 166.28-148.66 189.32-10.49 3.32-21.83 4.09-22.59 11.07-.46 4.25 6.65 13.22 13.49 23.19S814.6 896.8 814.6 896.8s8.24 11.48.22 20.53c-5.65 6.37-19.79 5.81-19.79 5.81H456.79s-20.92 1.06-30.69-8.72c-6-6-16.67-21.15-16.67-21.15L83.68 417.62s-6.52-8.64-4.4-15.31c3.08-9.69 12.64-12.06 22.05-15.74 12.75-4.98 121.1-47.32 123.8-174.65C228.14 70.05 107.72 26.93 95.66 25.17c-8.32-1.21-16.38-5.9-16.38-13.41C79.28-.96 93.23.02 93.23.02Z"/><path fill="url(#i)" d="M243.31 212.31c2.43-114.54-70.32-171.96-114.94-194.1L93.22.02S92.97 0 92.54 0c-2.81 0-13.27.74-13.27 11.77 0 7.5 8.07 12.2 16.38 13.41 12.06 1.76 132.47 44.87 129.47 186.75-1.82 85.76-51.54 132.93-87.73 156.13h31.03c36.16-29.37 73.25-78.24 74.89-155.75Z"/><path fill="url(#j)" d="M456.79 904.95h-.46l-.37.02c-.13 0-.47.01-.98.01-8.22 0-14.58-1.99-16.02-3.42-3.37-3.37-10.6-13-14.53-18.56L98.68 407.35l-.12-.18c1.72-.77 3.95-1.6 5.66-2.24 1.23-.46 2.48-.93 3.72-1.41 7.52-2.94 19.19-8.1 32.58-16.04v-21.44c-18.95 12.62-34.79 18.82-39.2 20.54-9.41 3.68-18.97 6.04-22.05 15.74-2.12 6.67 4.4 15.31 4.4 15.31l325.74 475.66s10.67 15.14 16.67 21.15c8.03 8.03 23.59 8.75 28.88 8.75 1.15 0 1.81-.03 1.81-.03h289.5v-18.19H456.79v-.02Z"/><path fill="url(#k)" d="M245.21 260.7c-.08 8.76 12.85 65.48 10.81 75.52-1.97 10.05 2.11 27.48-2.6 37.95-4.67 10.48-12.94 45.35-20.75 54.82-4.05 4.79-8.57 29.92-13.94 34.56-10.57 40.95-10.08 60.33-7.91 68.19 4.42 15.89-3.77 46.22-1.19 55.5 2.48 9.45-35.47-47.29-35.47-47.29s-3.67-4.27-9.5-12.14c-5.72-7.93-13.8-19.35-22.16-33.94-4.2-7.29-8.51-15.36-12.65-24.28-4.01-9.05-8.19-18.49-10.73-30.59-.3-1.63-.62-3.78-.81-5.27l-.23-1.94-.06-.49-.01-.12-.02-.73-.01-.38-.03-1.54c0-4.11.66-8.55 2.12-12.76 2.92-8.58 8.54-15.11 13.68-19.66 10.44-9.25 20.2-14.24 28.36-20.06 4.14-2.75 7.86-5.53 11.12-8.41 2.85-2.55 6.53-6.22 9.46-9.65 6.15-6.98 11.51-14.53 16.22-22.33 4.6-7.86 8.53-15.95 11.91-23.96a262.2 262.2 0 0 0 8.4-23.44c2.27-7.51 4.15-14.59 5.76-20.98 1.49-6.39 2.66-12.08 3.69-16.82-2.35-8.57-.9-38.74 1.31-38.93 1.33-.13 11.03 22.04 15.23 49.17Z" opacity=".6"/><path fill="#EED988" d="m89.78 418.84-6.74-9.4s-2.1-6.82 4.12-11.37c4.68-3.43 18.49-6.37 37.59-17.73 19.1-11.37 46.86-31.8 59.87-47.6 17.15-20.81 21.51-31.42 27.89-44.11 12.73-25.31 12.77-53.81 16.97-58.6 0 0 9.71 80.28-23.03 126.21-32.74 45.93-44.56 49.11-50.93 55.48-6.37 6.37-15.01 14.1-17.28 21.83-2.27 7.73-3.64 19.55 6.82 42.29s32.66 69.48 32.66 69.48l-43.27-61.45s-23.8-34.41-29.25-41.68c-5.45-7.27-15.42-23.35-15.42-23.35Z"/><path fill="url(#l)" d="m89.78 418.84-6.74-9.4s-2.1-6.82 4.12-11.37c4.68-3.43 18.49-6.37 37.59-17.73 19.1-11.37 46.86-31.8 59.87-47.6 17.15-20.81 21.51-31.42 27.89-44.11 12.73-25.31 12.77-53.81 16.97-58.6 0 0 9.71 80.28-23.03 126.21-32.74 45.93-44.56 49.11-50.93 55.48-6.37 6.37-15.01 14.1-17.28 21.83-2.27 7.73-3.64 19.55 6.82 42.29s32.66 69.48 32.66 69.48l-43.27-61.45s-23.8-34.41-29.25-41.68c-5.45-7.27-15.42-23.35-15.42-23.35Z" opacity=".8"/><path fill="url(#m)" d="M219.64 135.23s-23.7-56.39-65.54-86.4c-41.84-30.01-66.39-30.01-68.67-35.47-2.27-5.46-.45-9.09 8.64-10 9.09-.91 374.7 0 374.7 0S577 22.46 608.83 82.48s45.47 86.4 37.29 140.97c-8.19 54.57-12.73-30.01-12.73-30.01s5.12-25.65-21.58-52.6c-5.21-5.27-382.11-13.32-392.17-5.61Z"/><path fill="url(#n)" d="M225.89 160.64s-17.56-69.06-70.6-109.08c-41.1-31.01-66.73-28.04-71.33-36.38C81.1 10 83.44 3.86 92.54 2.95c9.09-.91 374.02 1.54 374.02 1.54s91.87 3.82 142.28 77.99c42.8 62.98 40.79 110.05 38.46 141.2-2.53 33.85-28.8 50.62-25.37 41.67 4.78-12.47 6.51-33.94 6.51-33.94s7.12-60.25-30.24-109.04c-29.33-38.3-77.99-69.19-160.3-69.19l-259.03-.03c.02 0 52.37 62.53 47.02 107.49Z"/><path fill="url(#o)" d="M628.41 204.97c1.76 25.19-1.57 45.52-6.47 60.38-19.13 58.05-74.95 96.2-124.03 111.74-2.15.68-4.35 1.23-6.45 1.76-9.36 2.38-39.14 8.76-47.95 31.03-4.68 13.99-3.47 25.78 6.68 41.84 2.58-42.14 29.21-42.02 29.67-46.27.76-6.97 12.47-8.5 22.96-11.82 72.77-23.03 147.66-92.71 148.37-188.66h-22.78Z"/><path fill="url(#p)" d="M485.13 394.53s-8.91 7.52-6.97 13.55c2.83 8.83 288.08 426.54 288.08 426.54l43.65 65.48s4.55 3.64 0 11.82c-4.55 8.19-14.55 5.46-14.55 5.46l-188.26.44-201.45-374.69s14.75-96.67 55.43-136.06c11.19-10.82 24.07-12.54 24.07-12.54Z" opacity=".6"/><path fill="url(#q)" d="M486.2 393.64s-12.15 9.59-10.22 15.61c2.83 8.83 290.26 425.37 290.26 425.37l43.65 64.35s6.14 6.59 2.02 14.21c-3.5 6.48-17.94 5.17-17.94 5.17l-186.9-.53 74.71-11.64s29.65-3.35 37.16-24.27c6.9-19.24-6.37-40.93-6.37-40.93L452.81 456.5s-13.19-17.39.86-40.9c8.92-14.94 32.53-21.96 32.53-21.96Z"/><path fill="url(#r)" d="M92.54 5.46h.3l.19.01h339.02c24.83 0 58.84 0 93.39 14.07 74.21 30.23 121.77 103.05 121.16 185.52-.71 95.24-75.58 162.23-144.85 184.16-2.39.76-4.82 1.37-7.16 1.97-8.54 2.17-18.22 4.63-19.21 13.71-.57 5.27 3.26 10.99 10.66 21.5 1.23 1.74 2.49 3.54 3.75 5.37 6.76 9.85 317.16 463.53 320.37 468.21.06.08 5.64 8.01.57 13.72-2.45 2.76-9.22 3.99-14.85 3.99l-.86-.01-338.52.01c-.06 0-.62.03-1.55.03-8.64 0-19.75-1.88-25.02-7.15-5.6-5.6-15.97-20.28-16.03-20.37L88.03 414.34c-1.68-2.23-4.45-7.56-3.56-10.37 1.8-5.68 6.99-7.87 15.29-10.96 1.17-.44 2.36-.88 3.54-1.34 29.21-11.41 124.7-58.08 127.27-179.62 1.62-76.27-32.2-123.7-60.85-150.05-33.65-30.95-67.93-41.43-73.29-42.21-5.82-.85-11.71-3.87-11.71-8.01.01-1.57.01-6.32 7.82-6.32Zm0-5.45c-2.8 0-13.27.74-13.27 11.77 0 7.5 8.07 12.2 16.38 13.41 12.06 1.76 132.47 44.87 129.47 186.75-2.7 127.33-111.05 169.67-123.8 174.65-9.41 3.68-18.97 6.04-22.05 15.74-2.12 6.67 4.4 15.31 4.4 15.31L409.41 893.3s10.67 15.14 16.67 21.15c8.03 8.03 23.59 8.75 28.88 8.75 1.15 0 1.81-.03 1.81-.03h338.25s.31.01.86.01c3.14 0 14.12-.4 18.93-5.83 8.03-9.04-.22-20.53-.22-20.53s-313.46-458.14-320.3-468.11c-6.85-9.97-13.95-18.94-13.49-23.19.76-6.97 12.09-7.74 22.59-11.07 72.76-23.04 147.94-93.37 148.66-189.32.68-92.02-54.22-161.96-124.55-190.61C491.97.05 457.7.04 432.06.04H93.23s-.26-.03-.69-.03Z"/><path fill="url(#s)" d="M99.77 393c1.17-.44 2.36-.88 3.54-1.34 29.21-11.41 124.7-58.08 127.27-179.62 1.62-76.27-32.2-123.7-60.85-150.05-33.65-30.95-67.93-41.43-73.29-42.21-5.82-.85-11.71-3.87-11.71-8.01 0-1.56 0-6.31 7.81-6.31h.3l.19.01h339.02c6.58 0 13.82 0 21.53.27V.27c-7.67-.25-14.89-.25-21.53-.25H93.22S92.97 0 92.54 0c-2.8 0-13.27.74-13.27 11.77 0 7.5 8.07 12.2 16.38 13.41 12.06 1.76 132.47 44.87 129.47 186.75-2.7 127.33-111.05 169.67-123.8 174.65-1.04.4-2.07.79-3.1 1.18v5.83c.5-.2 1.02-.39 1.55-.59Z"/><path fill="url(#t)" d="M501.75 389.23c-2.39.76 2.34-.59 0 0-8.54 2.17-25.38 6.59-26.36 15.68-.57 5.27 3.26 10.99 10.66 21.5 1.23 1.74 2.49 3.54 3.75 5.37 3.12 4.54 70.77 103.41 143.1 209.12h6.61c-73.1-106.84-142.04-207.59-145.21-212.21-6.85-9.97-13.95-18.94-13.49-23.19.76-6.97 12.09-7.74 22.59-11.07 62.42-19.77 126.58-74.36 144.02-150.06h-5.54c-17.47 74.27-80.83 126.08-140.13 144.86Z"/><path fill="url(#u)" d="M88.03 414.34c-1.68-2.23-4.45-7.56-3.56-10.37 1.8-5.68 6.99-7.87 15.29-10.96 1.17-.44 2.36-.88 3.54-1.34 26.46-10.34 107.32-49.62 124.21-147.29h-5.59c-18.33 102.21-109.01 137.68-120.61 142.21-9.41 3.68-18.97 6.04-22.05 15.74-2.12 6.67 4.4 15.31 4.4 15.31l119.9 175.07h6.61L88.03 414.34Z"/><path fill="url(#v)" d="M814.61 896.8s-84.25-123.14-166.35-243.13h-6.61l168.53 246.32c.06.08 5.64 8.01.57 13.72-2.45 2.76-9.22 3.99-14.85 3.99l-340.92.02c-8.64 0-19.75-1.88-25.02-7.15-5.6-5.6-15.97-20.28-16.03-20.37l-23.74-34.66h-6.61l25.85 37.74s10.67 15.14 16.67 21.15c8.03 8.03 23.59 8.75 28.88 8.75H795.8c3.14 0 14.22-.42 19.03-5.85 8.02-9.04-.22-20.53-.22-20.53Z"/><path fill="url(#w)" d="M501.75 389.23c-2.39.76-4.82 1.37-7.16 1.97-8.54 2.17-18.22 4.63-19.21 13.71-.57 5.27 3.26 10.99 10.66 21.5 1.23 1.74 2.49 3.54 3.75 5.37 3.12 4.54 70.77 103.41 143.1 209.12h6.61c-73.1-106.84-142.04-207.59-145.21-212.21-6.85-9.97-13.95-18.94-13.49-23.19.76-6.97 12.09-7.74 22.59-11.07 62.42-19.77 126.58-74.36 144.02-150.06h-5.54c-17.46 74.27-80.82 126.08-140.12 144.86Z"/><path fill="url(#x)" d="M88.03 414.34c-1.68-2.23-4.45-7.56-3.56-10.37 1.8-5.68 6.99-7.87 15.29-10.96 1.17-.44 2.36-.88 3.54-1.34 26.46-10.34 107.32-49.62 124.21-147.29h-5.59c-18.33 102.21-109.01 137.68-120.61 142.21-9.41 3.68-18.97 6.04-22.05 15.74-2.12 6.67 4.4 15.31 4.4 15.31l119.9 175.07h6.61L88.03 414.34Z"/><path fill="url(#y)" d="M814.61 896.8s-84.25-123.14-166.35-243.13h-6.61l168.53 246.32c.06.08 5.64 8.01.57 13.72-2.45 2.76-9.22 3.99-14.85 3.99l-340.92.02c-8.64 0-19.75-1.88-25.02-7.15-5.6-5.6-15.97-20.28-16.03-20.37l-23.74-34.66h-6.61l25.85 37.74s10.67 15.14 16.67 21.15c8.03 8.03 23.59 8.75 28.88 8.75H795.8c3.14 0 14.22-.42 19.03-5.85 8.02-9.04-.22-20.53-.22-20.53Z"/><path fill="url(#z)" d="m138 1118.44-32.17-50.13H80.67v50.13h-15.7V992.26h50.7c5.8 0 11.1.88 15.89 2.65 4.8 1.77 8.95 4.32 12.49 7.66 3.52 3.34 6.27 7.34 8.23 12.01 1.95 4.66 2.93 9.9 2.93 15.7 0 5.67-.88 10.72-2.64 15.13-1.77 4.41-4.16 8.13-7.19 11.16-3.03 3.03-6.53 5.42-10.5 7.18a38.58 38.58 0 0 1-12.39 3.22l34.06 51.47H138Zm-24.22-64.13c7.57 0 13.65-2.23 18.25-6.69 4.6-4.46 6.91-10.27 6.91-17.43s-2.3-12.94-6.91-17.34c-4.6-4.39-10.69-6.59-18.25-6.59H80.67v48.05h33.11Z"/><path fill="url(#A)" d="m351.32 1118.44-11.16-28h-62.8l-11.16 28h-17.97l50.7-126.18h19.48l50.89 126.18h-17.98Zm-42.57-109.91-26.86 67.91h53.53l-26.67-67.91Z"/><path fill="url(#B)" d="m536.97 1118.44-32.17-50.13h-25.16v50.13h-15.7V992.26h50.7c5.8 0 11.1.88 15.89 2.65 4.8 1.77 8.95 4.32 12.49 7.66 3.52 3.34 6.27 7.34 8.23 12.01 1.95 4.66 2.93 9.9 2.93 15.7 0 5.67-.88 10.72-2.64 15.13-1.77 4.41-4.16 8.13-7.19 11.16-3.03 3.03-6.53 5.42-10.5 7.18a38.58 38.58 0 0 1-12.39 3.22l34.06 51.47h-18.55Zm-24.21-64.13c7.57 0 13.65-2.23 18.25-6.69 4.6-4.46 6.91-10.27 6.91-17.43s-2.3-12.94-6.91-17.34c-4.6-4.39-10.69-6.59-18.25-6.59h-33.11v48.05h33.11Z"/><path fill="url(#C)" d="M656.35 1118.44V992.26h82.66v14h-66.97v40.67h65.65v14h-65.65v43.51h66.97v14h-82.66Z"/><path fill="#AE6D29" d="M675.52 53.22c-13.17 0-23.87-10.7-23.87-23.88 0-13.29 10.7-23.88 23.87-23.88 13.3 0 23.88 10.59 23.88 23.88 0 13.18-10.59 23.88-23.88 23.88Zm0-44.15c-11.26 0-20.27 9.01-20.27 20.27 0 11.15 9.01 20.28 20.27 20.28 11.15 0 20.28-9.12 20.28-20.28-.01-11.26-9.13-20.27-20.28-20.27Zm6.53 34.01-7.1-10.81h-4.73v10.81h-3.82V15.71h11.15c4.61 0 8.9 3.27 8.9 8.34 0 6.08-5.41 8.11-6.99 8.11l7.33 10.92h-4.74Zm-4.5-23.99h-7.33v9.69h7.33c2.36 0 4.95-1.92 4.95-4.73 0-3.04-2.59-4.96-4.95-4.96Z"/><defs><linearGradient id="a" x1="-56.495" x2="354.236" y1="800.241" y2="389.509" gradientUnits="userSpaceOnUse"><stop stop-color="#0BBBE6"/><stop offset=".072" stop-color="#09A8DA"/><stop offset=".23" stop-color="#157BBC"/><stop offset=".436" stop-color="#1F429B"/><stop offset=".667" stop-color="#232962"/><stop offset="1" stop-color="#1D1E53"/></linearGradient><linearGradient id="b" x1="282.028" x2="282.028" y1="805.516" y2="249.938" gradientUnits="userSpaceOnUse"><stop stop-color="#0BBBE5"/><stop offset=".033" stop-color="#1AB3E1"/><stop offset=".085" stop-color="#24A8DE"/><stop offset=".121" stop-color="#26A4DE"/><stop offset=".216" stop-color="#2A87C9"/><stop offset=".304" stop-color="#2C72B9"/><stop offset=".35" stop-color="#2C6AB4"/><stop offset=".481" stop-color="#27539F"/><stop offset=".587" stop-color="#254393"/><stop offset=".647" stop-color="#253D8F"/><stop offset=".715" stop-color="#254091"/><stop offset=".803" stop-color="#264998"/><stop offset=".901" stop-color="#2958A3"/><stop offset="1" stop-color="#2C6AB4"/></linearGradient><linearGradient id="c" x1="414.022" x2="414.022" y1="293.798" y2="966.016" gradientUnits="userSpaceOnUse"><stop stop-color="#1B1E32"/><stop offset="1" stop-color="#0C102E" stop-opacity="0"/></linearGradient><linearGradient id="d" x1="126.876" x2="43.981" y1="17.049" y2="17.049" gradientUnits="userSpaceOnUse"><stop stop-color="#0C0F19"/><stop offset="1" stop-color="#0D122C" stop-opacity="0"/></linearGradient><linearGradient id="e" x1="448.224" x2="373.512" y1="918.918" y2="918.918" gradientUnits="userSpaceOnUse"><stop stop-color="#0C0F19"/><stop offset="1" stop-color="#0D122C" stop-opacity="0"/></linearGradient><linearGradient id="f" x1="183.109" x2="691.473" y1="725.934" y2="217.569" gradientUnits="userSpaceOnUse"><stop stop-color="#A35525"/><stop offset=".22" stop-color="#AF6628"/><stop offset=".436" stop-color="#BF892C"/><stop offset=".558" stop-color="#C6962C"/><stop offset=".771" stop-color="#DDBE2D"/><stop offset="1" stop-color="#E5D03B"/></linearGradient><linearGradient id="g" x1="127.382" x2="433.428" y1="461.59" y2="461.59" gradientUnits="userSpaceOnUse"><stop stop-color="#9A6B29"/><stop offset="1" stop-color="#9A6B29" stop-opacity="0"/></linearGradient><linearGradient id="h" x1="448.595" x2="448.595" y1="1263.41" y2="657.357" gradientUnits="userSpaceOnUse"><stop stop-color="#A84322"/><stop offset=".735" stop-color="#8F3D1E" stop-opacity=".265"/><stop offset="1" stop-color="#853A1C" stop-opacity="0"/></linearGradient><linearGradient id="i" x1="161.322" x2="161.322" y1="126.44" y2="284.869" gradientUnits="userSpaceOnUse"><stop stop-color="#B75E27"/><stop offset=".631" stop-color="#B75E27" stop-opacity="0"/></linearGradient><linearGradient id="j" x1="339.215" x2="444.21" y1="750.039" y2="624.046" gradientUnits="userSpaceOnUse"><stop stop-color="#85331B"/><stop offset=".396" stop-color="#85331B" stop-opacity="0"/></linearGradient><linearGradient id="k" x1="240.749" x2="78.407" y1="402.378" y2="383.279" gradientUnits="userSpaceOnUse"><stop stop-color="#E7E074" stop-opacity="0"/><stop offset=".642" stop-color="#E7E074" stop-opacity=".895"/><stop offset=".717" stop-color="#E7E074"/><stop offset="1" stop-color="#E7E074"/></linearGradient><linearGradient id="l" x1="77.59" x2="207.605" y1="387.67" y2="387.67" gradientUnits="userSpaceOnUse"><stop offset=".001" stop-color="#FDF7B8"/><stop offset=".223" stop-color="#F2E097"/><stop offset=".519" stop-color="#E6CC6E"/><stop offset=".791" stop-color="#E1C15D"/><stop offset="1" stop-color="#D2A746"/></linearGradient><linearGradient id="m" x1="366.504" x2="366.504" y1="127.046" y2="10.577" gradientUnits="userSpaceOnUse"><stop stop-color="#E7E074" stop-opacity="0"/><stop offset=".742" stop-color="#E7E074" stop-opacity=".914"/><stop offset=".812" stop-color="#E7E074"/><stop offset="1" stop-color="#E7E074"/></linearGradient><linearGradient id="n" x1="220.062" x2="399.773" y1="135.242" y2="135.242" gradientUnits="userSpaceOnUse"><stop stop-color="#ECD383"/><stop offset="1" stop-color="#F6F5BC"/></linearGradient><linearGradient id="o" x1="546.038" x2="546.038" y1="230.743" y2="381.622" gradientUnits="userSpaceOnUse"><stop stop-color="#F6F5BC"/><stop offset=".218" stop-color="#EDDE7F"/><stop offset=".333" stop-color="#DDB95A"/><stop offset=".48" stop-color="#CE9234"/><stop offset=".553" stop-color="#C9852A"/><stop offset=".904" stop-color="#BA6428"/></linearGradient><linearGradient id="p" x1="410.875" x2="700.696" y1="727.971" y2="638.236" gradientUnits="userSpaceOnUse"><stop offset=".184" stop-color="#E7E074" stop-opacity="0"/><stop offset=".772" stop-color="#E7E074" stop-opacity=".853"/><stop offset=".873" stop-color="#E7E074"/><stop offset="1" stop-color="#E7E074"/></linearGradient><linearGradient id="q" x1="630.265" x2="630.265" y1="768.226" y2="446.509" gradientUnits="userSpaceOnUse"><stop stop-color="#F3E39B"/><stop offset=".171" stop-color="#EFDB87"/><stop offset=".368" stop-color="#EAD16B"/><stop offset="1" stop-color="#EBD168"/></linearGradient><linearGradient id="r" x1="564.611" x2="221.118" y1="344.431" y2="687.925" gradientUnits="userSpaceOnUse"><stop stop-color="#E4AA31"/><stop offset=".503" stop-color="#87481F"/><stop offset="1" stop-color="#823B1D"/></linearGradient><linearGradient id="s" x1="276.427" x2="88.428" y1="-11.096" y2="329.571" gradientUnits="userSpaceOnUse"><stop offset=".1" stop-color="#E4AA31"/><stop offset=".147" stop-color="#D49A2F"/><stop offset=".233" stop-color="#B6782A"/><stop offset=".347" stop-color="#8A4B20"/><stop offset=".355" stop-color="#87481F"/><stop offset=".431" stop-color="#85421E"/><stop offset=".575" stop-color="#823B1D"/><stop offset=".688" stop-color="#85431E"/><stop offset=".818" stop-color="#87481F"/><stop offset=".85" stop-color="#8F5021"/><stop offset=".904" stop-color="#A56826"/><stop offset=".974" stop-color="#CE922E"/><stop offset="1" stop-color="#E4AA31"/></linearGradient><linearGradient id="t" x1="561.374" x2="561.374" y1="282.41" y2="454.645" gradientUnits="userSpaceOnUse"><stop offset=".001" stop-color="#B87029" stop-opacity="0"/><stop offset=".126" stop-color="#B87029"/><stop offset=".145" stop-color="#AE6727"/><stop offset=".188" stop-color="#9E5924"/><stop offset=".239" stop-color="#934F21"/><stop offset=".305" stop-color="#8C4920"/><stop offset=".444" stop-color="#8A481F"/><stop offset=".58" stop-color="#9A5523"/><stop offset=".861" stop-color="#B87029"/><stop offset="1" stop-color="#B87029" stop-opacity="0"/></linearGradient><linearGradient id="u" x1="68.669" x2="189.298" y1="418.534" y2="418.534" gradientUnits="userSpaceOnUse"><stop offset=".375" stop-color="#BB7B2A"/><stop offset=".951" stop-color="#BB7B2A" stop-opacity=".079"/><stop offset="1" stop-color="#BB7B2A" stop-opacity="0"/></linearGradient><linearGradient id="v" x1="842.557" x2="585.479" y1="983.092" y2="815.748" gradientUnits="userSpaceOnUse"><stop stop-color="#B87029"/><stop offset="1" stop-color="#B87029" stop-opacity="0"/></linearGradient><linearGradient id="w" x1="435.492" x2="604.786" y1="442.635" y2="442.635" gradientUnits="userSpaceOnUse"><stop stop-color="#B87029"/><stop offset="1" stop-color="#B87029" stop-opacity="0"/></linearGradient><linearGradient id="x" x1="68.669" x2="189.298" y1="418.534" y2="418.534" gradientUnits="userSpaceOnUse"><stop stop-color="#B87029"/><stop offset="1" stop-color="#B87029" stop-opacity="0"/></linearGradient><linearGradient id="y" x1="842.557" x2="585.479" y1="983.092" y2="815.748" gradientUnits="userSpaceOnUse"><stop stop-color="#B87029"/><stop offset="1" stop-color="#B87029" stop-opacity="0"/></linearGradient><linearGradient id="z" x1="110.754" x2="110.754" y1="1110.21" y2="1026.22" gradientUnits="userSpaceOnUse"><stop stop-color="#2B90CF"/><stop offset=".499" stop-color="#2E72B9"/><stop offset="1" stop-color="#284E97"/></linearGradient><linearGradient id="A" x1="308.753" x2="308.753" y1="1110.21" y2="1026.22" gradientUnits="userSpaceOnUse"><stop stop-color="#2B90CF"/><stop offset=".499" stop-color="#2E72B9"/><stop offset="1" stop-color="#284E97"/></linearGradient><linearGradient id="B" x1="509.73" x2="509.73" y1="1110.21" y2="1026.22" gradientUnits="userSpaceOnUse"><stop stop-color="#2B90CF"/><stop offset=".499" stop-color="#2E72B9"/><stop offset="1" stop-color="#284E97"/></linearGradient><linearGradient id="C" x1="697.686" x2="697.686" y1="1110.21" y2="1026.22" gradientUnits="userSpaceOnUse"><stop stop-color="#2B90CF"/><stop offset=".499" stop-color="#2E72B9"/><stop offset="1" stop-color="#284E97"/></linearGradient></defs></svg>